<svg xmlns="http://www.w3.org/2000/svg" width="16" height="16" viewBox="0 0 16 16"><defs><style>.a{fill:#aab2b5;}</style></defs><path class="a" d="M.8,1.738.938,1.6V14.594a.468.468,0,0,0,.469.469H14.4l-.137.137a.469.469,0,0,0,.663.663l.938-.938a.469.469,0,0,0,0-.663l-.938-.938a.469.469,0,1,0-.663.663l.137.137H13.157V9.375h.469a.468.468,0,0,0,.469-.469V5.156a.468.468,0,0,0-.469-.469h-.469V.469a.469.469,0,0,0-.938,0V4.687h-.469a.468.468,0,0,0-.469.469v3.75a.468.468,0,0,0,.469.469h.469v4.75H9.407V6.562h.469a.468.468,0,0,0,.469-.469V2.344a.468.468,0,0,0-.469-.469H9.407V.469a.469.469,0,0,0-.938,0V1.875H8a.468.468,0,0,0-.469.469v3.75A.468.468,0,0,0,8,6.562h.469v7.563H5.657V12.219h.469a.468.468,0,0,0,.469-.469V7.969A.468.468,0,0,0,6.126,7.5H5.657V.469a.469.469,0,0,0-.938,0V7.5H4.251a.468.468,0,0,0-.469.469V11.75a.468.468,0,0,0,.469.469h.469v1.906H1.876V12.219h.469a.469.469,0,1,0,0-.938H1.876V9.375h.469a.469.469,0,1,0,0-.938H1.876V6.562h.469a.469.469,0,0,0,0-.938H1.876V3.75h.469a.469.469,0,1,0,0-.938H1.876V1.6l.137.137a.469.469,0,0,0,.663-.663L1.738.137a.469.469,0,0,0-.663,0l-.938.938A.469.469,0,1,0,.8,1.738Z" transform="translate(-0.001 0)"/></svg>