<svg xmlns="http://www.w3.org/2000/svg" viewBox="0 0 75.74 85.49">
  <title>Ativo 9logo</title>
  <g id="Camada_2" data-name="Camada 2">
    <g id="LOGO">
      <path d="M14.11,75.85V80.2a5.29,5.29,0,0,0,5.29,5.29H67.75a8,8,0,0,0,8-8V37.87a5.28,5.28,0,0,0-5.29-5.28H22.1a8,8,0,0,0-8,8V63.39a8,8,0,0,0,8,8H56.34a5.29,5.29,0,0,0,5.29-5.29V56.35a5.29,5.29,0,0,0-5.29-5.29H5.29a3.43,3.43,0,0,1-3.44-3.44V22.1A6.15,6.15,0,0,1,8,16H56.34a5.29,5.29,0,0,0,5.29-5.29V.92a.93.93,0,0,0-1.85,0v9.75a3.45,3.45,0,0,1-3.44,3.44H8a8,8,0,0,0-8,8V47.62a5.29,5.29,0,0,0,5.29,5.29H56.34a3.43,3.43,0,0,1,3.44,3.44v9.74a3.45,3.45,0,0,1-3.44,3.44H22.1A6.15,6.15,0,0,1,16,63.39V40.58a6.15,6.15,0,0,1,6.14-6.15H70.45a3.45,3.45,0,0,1,3.44,3.44V77.5a6.13,6.13,0,0,1-6.14,6.14H19.4A3.43,3.43,0,0,1,16,80.2V75.85a.93.93,0,1,0-1.85,0Z" style="fill:#00C9A4"/>
    </g>
  </g>
</svg>